<?xml version="1.0" encoding="UTF-8"?><svg id="FORN" xmlns="http://www.w3.org/2000/svg" viewBox="0 0 747.22 423" fill="#00218f"><path id="f" d="M108,423H0V0h180v72h-9.03s0-63-81.74-63.5C-1.53,7.94,8,71.5,8,71.5v72.5h172v72h-9.19c-.5-62.5-63.82-62.5-80.82-63.06-.44-.01-.89.06-1.33.06H8v198s.5,63.5,100,63.5v8.5Z" style="stroke-width:0px;"/><path id="o" d="M279,0h-90s0,351,0,351c0,0-.51,72,90,72h90l.5-350.5S369,0,279,0ZM359,305c-.5,53.5-45,45-45,45h-117s.5-170.5,0-225,54-54,54-54h108s.5,180.5,0,234Z" style="stroke-width:0px;"/><path id="r" d="M558.4,89.71C558,0,468.69,0,468.69,0h-90.69l-.5,423h180.5v-72h-9c-.5,71.5-81,63-81,63h-81v-17.27c.5-53.73,81.85-53.73,81.85-53.73l89.55-1c0-117.5-90.05-117-90.05-117h-81.34v-9h171s.44-117.1.4-126.29ZM441,72s23.5-.5,38.5,14.5c15,15,15.5,39.5,15.5,39.5,0,0-24.5,3.5-39.5-12.5-15.48-16.51-14.5-41.5-14.5-41.5Z" style="stroke-width:0px;"/><path id="n" d="M747,72C746.5-.5,657,0,657,0h-90v423h9V125.83c0-17.19,6.04-29.01,14.8-37.12,9.84-10.39,27.89-16.71,43.33-16.71h103.87v279c0,62.5-81,63-81,63v9h90s.5-278.5,0-351Z" style="stroke-width:0px;"/></svg>